<svg width="32" height="32" viewBox="0 0 32 32" fill="none" xmlns="http://www.w3.org/2000/svg">
  <!-- Фон -->
  <rect width="32" height="32" fill="#DC2626"/>
  
  <!-- Профиль женского лица -->
  <g transform="translate(16, 8)">
    <!-- Контур головы и плеч -->
    <path d="M-8 -4 C-8 -6 -6 -8 -4 -8 C-2 -8 0 -6 0 -4 C0 -2 2 0 4 0 C6 0 8 2 8 4 C8 6 6 8 4 8 C2 8 0 6 0 4 C0 2 -2 0 -4 0 C-6 0 -8 -2 -8 -4 Z" 
          fill="none" stroke="white" stroke-width="1.5" stroke-linecap="round" stroke-linejoin="round"/>
    
    <!-- Глаз -->
    <ellipse cx="-2" cy="-2" rx="1.5" ry="1" fill="white"/>
    <path d="M-3.5 -2.5 L-2.5 -2.5 M-1.5 -2.5 L-0.5 -2.5" stroke="white" stroke-width="0.8" stroke-linecap="round"/>
    
    <!-- Бровь -->
    <path d="M-3.5 -3.5 L-0.5 -3.5" stroke="white" stroke-width="1" stroke-linecap="round"/>
    
    <!-- Нос -->
    <path d="M-1 -1 L-1 1" stroke="white" stroke-width="0.8" stroke-linecap="round"/>
    
    <!-- Губы (белые) -->
    <path d="M-2.5 2 C-2.5 1.5 -2 1 -1.5 1 C-1 1 -0.5 1.5 -0.5 2 C-0.5 2.5 -1 3 -1.5 3 C-2 3 -2.5 2.5 -2.5 2 Z" 
          fill="white" stroke="white" stroke-width="0.5"/>
    
    <!-- Волосы -->
    <path d="M-8 -2 C-7 -4 -6 -5 -4 -5 C-2 -5 0 -4 2 -3 C4 -2 6 -1 8 0 C8 2 6 4 4 4 C2 4 0 2 -2 0 C-4 -2 -6 -3 -8 -2 Z" 
          fill="white" opacity="0.9"/>
    
    <!-- Дополнительные локоны -->
    <path d="M-6 0 C-5 2 -3 3 -1 3 C1 3 3 2 5 1" stroke="white" stroke-width="1.2" fill="none" stroke-linecap="round"/>
    <path d="M-7 1 C-6 3 -4 4 -2 4 C0 4 2 3 4 2" stroke="white" stroke-width="1" fill="none" stroke-linecap="round"/>
  </g>
  
  <!-- Текст логотипа (упрощенный) -->
  <text x="16" y="28" text-anchor="middle" font-family="Arial, sans-serif" font-size="4" font-weight="bold" fill="white">II</text>
</svg>
